<svg xmlns="http://www.w3.org/2000/svg" version="1.1" xmlns:xlink="http://www.w3.org/1999/xlink" xmlns:svgjs="http://svgjs.dev/svgjs" width="486.12" height="465.06"><svg id="SvgjsSvg1153" data-name="Ebene 1" xmlns="http://www.w3.org/2000/svg" viewBox="0 0 486.12 465.06">
  <path d="M0,465.06C-.28,382.37,0,22.53-.01,0-.01,0-5.08,0,11.67,0c29,0,40,0,84.19.29L486.12-.11c0,46.63.01,40.63-.04,95.61l.05,369.55M350.76,204.69c29.37-31.81,14.66-101.54-35.14-102.73-49.22,2.83-102.34-3.6-151.09,0-16.51,1.22-33.42,14.7-38.74,30.26-8.2,23.99-3.23,58.82-3.67,84.33l-1.09,6.91c2.41,39.34-3.04,82.16,0,121.09,1.14,14.63,17.23,19.38,23.01,4.93l.02-194.98c.82-16.32,10.52-29.21,27.47-30.53l142.04.04c39.28,5.24,39.38,71.16-2.96,74.05-42.47,2.89-88.18-2.3-131,0-16.03,4.01-13.22,21.74,2.91,23,42.22-2.2,87.16,2.8,129.05-.03,14.17-.96,29.52-5.87,39.17-16.32ZM220.86,246.29c-41.46,2.61-56.28,24.6-52.78,65.22,1.59,18.43,15.66,35.51,33.22,40.78,13.95,4.19,37.58,3.58,52.28,2.71,5.2-.31,11.52,1.54,15.52-2.48,6.6-6.65,4.42-17.09-4.95-19.06-3.88-.82-12.21-1.3-16.51-1.49-20.66-.94-44.92,6.97-54.04-16.96-7.31-19.19-1.18-42.11,21.06-45.92,32.14,1.77,67.18-2.59,98.97-.11,37.7,2.94,36.2,60.33.85,63.94-6.75.69-18.05-1.61-20.19,7.8-2.65,11.62,7.48,15.76,17.31,15.31,22.19-1.01,41.35-11.21,49.26-32.73,6.77-18.42,4.4-48.78-10.76-62.79-20.14-18.62-48.24-12.95-73.56-13.44-18.44-.35-37.06-1.94-55.68-.77Z"></path>
</svg><style>@media (prefers-color-scheme: light) { :root { filter: none; } }
@media (prefers-color-scheme: dark) { :root { filter: invert(100%); } }
</style></svg>