<?xml version="1.0" encoding="UTF-8"?>
<svg width="488px" height="467px" viewBox="0 0 488 467" version="1.1" xmlns="http://www.w3.org/2000/svg" xmlns:xlink="http://www.w3.org/1999/xlink">
    <title>favicon</title>
    <g id="Page-1" stroke="none" stroke-width="1" fill="none" fill-rule="evenodd">
        <g id="favicon" transform="translate(0.2691, 0.89)" fill="#FFFFFF" fill-rule="nonzero">
            <path d="M0.730945217,465.17 C0.450945217,382.48 0.730945217,22.64 0.720945217,0.11 C0.720945217,0.11 -4.34905478,0.11 12.4009452,0.11 C41.4009452,0.11 52.4009452,0.11 96.5909452,0.4 L486.850945,0 C486.850945,46.63 486.860945,40.63 486.810945,95.61 L486.860945,465.16 M351.490945,204.8 C380.860945,172.99 366.150945,103.26 316.350945,102.07 C267.130945,104.9 214.010945,98.47 165.260945,102.07 C148.750945,103.29 131.840945,116.77 126.520945,132.33 C118.320945,156.32 123.290945,191.15 122.850945,216.66 L121.760945,223.57 C124.170945,262.91 118.720945,305.73 121.760945,344.66 C122.900945,359.29 138.990945,364.04 144.770945,349.59 L144.790945,154.61 C145.610945,138.29 155.310945,125.4 172.260945,124.08 L314.300945,124.12 C353.580945,129.36 353.680945,195.28 311.340945,198.17 C268.870945,201.06 223.160945,195.87 180.340945,198.17 C164.310945,202.18 167.120945,219.91 183.250945,221.17 C225.470945,218.97 270.410945,223.97 312.300945,221.14 C326.470945,220.18 341.820945,215.27 351.470945,204.82 L351.490945,204.8 Z M221.590945,246.4 C180.130945,249.01 165.310945,271 168.810945,311.62 C170.400945,330.05 184.470945,347.13 202.030945,352.4 C215.980945,356.59 239.610945,355.98 254.310945,355.11 C259.510945,354.8 265.830945,356.65 269.830945,352.63 C276.430945,345.98 274.250945,335.54 264.880945,333.57 C261.000945,332.75 252.670945,332.27 248.370945,332.08 C227.710945,331.14 203.450945,339.05 194.330945,315.12 C187.020945,295.93 193.150945,273.01 215.390945,269.2 C247.530945,270.97 282.570945,266.61 314.360945,269.09 C352.060945,272.03 350.560945,329.42 315.210945,333.03 C308.460945,333.72 297.160945,331.42 295.020945,340.83 C292.370945,352.45 302.500945,356.59 312.330945,356.14 C334.520945,355.13 353.680945,344.93 361.590945,323.41 C368.360945,304.99 365.990945,274.63 350.830945,260.62 C330.690945,242 302.590945,247.67 277.270945,247.18 C258.830945,246.83 240.210945,245.24 221.590945,246.41 L221.590945,246.4 Z" id="Shape"></path>
        </g>
    </g>
</svg>